<?xml version="1.0" encoding="UTF-8"?>
<!DOCTYPE svg PUBLIC "-//W3C//DTD SVG 1.1//EN" "http://www.w3.org/Graphics/SVG/1.1/DTD/svg11.dtd">
<svg xmlns="http://www.w3.org/2000/svg" version="1.1" width="520px" height="424px" style="shape-rendering:geometricPrecision; text-rendering:geometricPrecision; image-rendering:optimizeQuality; fill-rule:evenodd; clip-rule:evenodd" xmlns:xlink="http://www.w3.org/1999/xlink">
<g><path style="opacity:0.97" fill="#080908" d="M 486.5,386.5 C 482.931,379.81 479.931,372.81 477.5,365.5C 475.813,364.432 474.146,364.599 472.5,366C 466.258,367.023 460.592,365.689 455.5,362C 448.237,355.576 441.904,348.409 436.5,340.5C 437.002,339.479 437.668,339.312 438.5,340C 445.916,347.42 453.916,354.087 462.5,360C 466.625,360.854 470.625,360.52 474.5,359C 476.049,357.786 477.215,356.286 478,354.5C 477.921,329.177 467.421,309.343 446.5,295C 440.34,291.127 433.673,289.793 426.5,291C 422.614,292.937 420.947,296.103 421.5,300.5C 421.607,303.567 422.107,306.567 423,309.5C 425.682,315.834 428.015,322.167 430,328.5C 420.309,318.791 415.975,307.124 417,293.5C 418.833,290.333 421.333,287.833 424.5,286C 420.439,286.304 417.273,284.804 415,281.5C 410.359,266.278 400.192,259.112 384.5,260C 355.492,277.173 326.158,293.839 296.5,310C 288.519,314.491 280.185,318.158 271.5,321C 263.856,329.789 259.023,339.956 257,351.5C 249.587,358.971 241.921,359.305 234,352.5C 231.821,342.337 232.488,332.337 236,322.5C 237.979,318.044 240.813,314.21 244.5,311C 235.013,303.424 225.346,296.091 215.5,289C 203.147,288.207 190.814,287.207 178.5,286C 166.721,282.701 162.888,275.201 167,263.5C 167.914,261.336 169.081,259.336 170.5,257.5C 168.231,253.583 165.397,252.916 162,255.5C 160.464,264.178 159.131,272.845 158,281.5C 153.483,285.242 148.316,286.409 142.5,285C 138.138,282.457 135.638,278.623 135,273.5C 119.962,285.537 106.629,299.204 95,314.5C 94.578,320.855 92.9114,326.855 90,332.5C 89.6667,324.833 89.3333,317.167 89,309.5C 87.8393,307.335 86.006,306.335 83.5,306.5C 77.9002,307.718 73.0668,310.384 69,314.5C 62.444,322.942 57.444,332.276 54,342.5C 53.3333,346.5 53.3333,350.5 54,354.5C 55.6643,359.038 58.8309,360.538 63.5,359C 69.2383,356.378 74.4049,352.878 79,348.5C 77.5124,354.349 74.0124,358.849 68.5,362C 64.1292,363.772 59.6292,364.939 55,365.5C 51.9386,373.953 48.1053,381.953 43.5,389.5C 42.9654,379.544 45.2987,370.044 50.5,361C 45.684,352.68 45.5173,344.18 50,335.5C 55.1576,321.313 63.991,310.146 76.5,302C 80.1418,301.086 83.8085,300.252 87.5,299.5C 91.5,294.5 95.5,289.5 99.5,284.5C 96.1465,280.981 92.9798,277.314 90,273.5C 81.247,279.021 71.747,280.854 61.5,279C 59.04,277.542 56.8734,275.709 55,273.5C 47.4817,256.913 44.4817,239.58 46,221.5C 37.0785,202.817 33.0785,183.15 34,162.5C 37.4571,141.853 48.9571,135.353 68.5,143C 85.4461,150.949 100.446,161.615 113.5,175C 130.967,180.139 145.467,189.639 157,203.5C 159.74,208.425 159.574,213.425 156.5,218.5C 170.942,212.449 185.276,205.449 199.5,197.5C 191.367,195.207 187.201,189.874 187,181.5C 185.547,160.852 185.213,140.186 186,119.5C 186.785,117.714 187.951,116.214 189.5,115C 226.248,109.248 241.914,124.748 236.5,161.5C 241.009,163.465 245.676,165.132 250.5,166.5C 254.832,162.346 259.832,159.179 265.5,157C 262.286,152.074 259.452,146.907 257,141.5C 254.727,134.014 252.06,126.68 249,119.5C 245.715,114.546 242.048,109.88 238,105.5C 237.802,99.8213 237.802,94.1547 238,88.5C 237.097,87.2986 235.931,86.4652 234.5,86C 228.416,84.6457 222.416,82.979 216.5,81C 209.088,75.1402 208.755,68.9736 215.5,62.5C 209.431,54.8782 210.431,48.3782 218.5,43C 221.393,41.8512 224.393,41.3512 227.5,41.5C 227.704,32.6282 232.371,27.9615 241.5,27.5C 253.885,29.8833 263.218,36.5499 269.5,47.5C 273.656,42.4218 278.989,39.4218 285.5,38.5C 295.824,40.1325 299.991,46.1325 298,56.5C 294.13,60.9467 289.796,64.9467 285,68.5C 284.054,74.6713 285.388,80.338 289,85.5C 289.104,94.9397 290.104,104.273 292,113.5C 292.552,108.436 294.385,103.936 297.5,100C 290.648,87.9642 291.148,76.1308 299,64.5C 304.5,55 312,47.5 321.5,42C 326.951,40.2542 332.451,40.0875 338,41.5C 344.344,36.8289 351.51,34.3289 359.5,34C 410.348,31.6768 438.682,55.8435 444.5,106.5C 444.428,108.56 444.095,110.56 443.5,112.5C 444.903,114.731 446.07,117.064 447,119.5C 454.917,124.208 462.75,129.041 470.5,134C 472.592,135.853 473.592,138.186 473.5,141C 469.644,152.217 464.811,163.05 459,173.5C 445.888,198.737 430.055,222.071 411.5,243.5C 427.191,250.89 435.358,263.223 436,280.5C 435.167,281.333 434.333,282.167 433.5,283C 460.583,293.088 477.416,312.254 484,340.5C 484.667,345.167 484.667,349.833 484,354.5C 483.55,356.519 482.717,358.352 481.5,360C 485.944,367.944 488.111,376.444 488,385.5C 487.617,386.056 487.117,386.389 486.5,386.5 Z M 134.5,249.5 C 135.289,249.783 135.956,250.283 136.5,251C 131.058,255.784 130.392,255.284 134.5,249.5 Z M 112.5,267.5 C 113.478,267.811 114.145,268.478 114.5,269.5C 112.459,272.747 110.459,272.914 108.5,270C 110.066,269.392 111.4,268.558 112.5,267.5 Z"/></g>
<g><path style="opacity:1" fill="#f8f8f8" d="M 237.5,34.5 C 251.159,35.0002 260.825,41.5002 266.5,54C 264.195,57.9041 263.361,62.0707 264,66.5C 266.494,56.3465 272.327,48.8465 281.5,44C 287.895,42.5484 291.895,45.0484 293.5,51.5C 293.281,52.938 292.781,54.2713 292,55.5C 287.446,58.1184 283.446,61.4518 280,65.5C 279,70.5 278,75.5 277,80.5C 272.916,83.1258 268.75,85.6258 264.5,88C 270.257,87.6322 275.591,85.7988 280.5,82.5C 283.326,86.3916 284.159,90.7249 283,95.5C 272.484,104.506 260.317,108.006 246.5,106C 244.703,104.406 243.703,102.406 243.5,100C 244.275,97.1776 244.942,94.3443 245.5,91.5C 251.38,91.9516 257.047,91.1183 262.5,89C 257.167,88.6667 251.833,88.3333 246.5,88C 244.5,84.6667 241.833,82 238.5,80C 232.6,78.0246 226.6,76.3579 220.5,75C 217.141,72.9658 216.808,70.6324 219.5,68C 222.768,66.7873 226.101,66.454 229.5,67C 233.363,68.7322 237.363,70.0656 241.5,71C 242.227,72.3988 242.727,73.8988 243,75.5C 247.607,68.7245 253.107,62.7245 259.5,57.5C 257.587,56.9488 255.587,56.7821 253.5,57C 247.243,52.2873 241.076,47.454 235,42.5C 233.837,39.0289 234.67,36.3623 237.5,34.5 Z"/></g>
<g><path style="opacity:1" fill="#f9f9f9" d="M 361.5,41.5 C 408.482,38.7952 433.815,61.1286 437.5,108.5C 436.448,108.351 435.448,108.517 434.5,109C 442.625,114.36 445.458,121.86 443,131.5C 440.061,144.217 433.894,155.05 424.5,164C 419.676,168.496 414.01,170.163 407.5,169C 403.184,165.401 401.184,160.735 401.5,155C 403.207,138.625 410.207,124.958 422.5,114C 425.048,111.558 428.048,109.892 431.5,109C 424.25,108.707 418.417,111.54 414,117.5C 415.158,110.583 415.492,103.583 415,96.5C 414.443,92.825 413.11,89.4917 411,86.5C 412.263,91.6686 413.096,97.0019 413.5,102.5C 409.654,125.362 398.321,143.529 379.5,157C 348.355,166.68 323.855,157.847 306,130.5C 301.322,123.478 299.322,115.811 300,107.5C 300.833,106.5 301.667,105.5 302.5,104.5C 308.753,128.915 323.753,145.082 347.5,153C 365.863,155.068 380.363,148.568 391,133.5C 398.885,123.513 402.551,112.18 402,99.5C 391.404,71.0647 371.237,54.0647 341.5,48.5C 342.605,47.1076 343.939,45.941 345.5,45C 349.833,44.3333 354.167,44.3333 358.5,45C 379.707,52.8707 396.874,66.0373 410,84.5C 402.809,68.9636 391.642,56.797 376.5,48C 371.712,45.2707 366.712,43.104 361.5,41.5 Z"/></g>
<g><path style="opacity:1" fill="#f0f0f0" d="M 329.5,45.5 C 331.288,45.2148 332.955,45.5481 334.5,46.5C 326.46,55.0393 318.293,63.3727 310,71.5C 305.714,78.0127 302.381,85.0127 300,92.5C 298.595,88.9279 298.262,85.2613 299,81.5C 303.99,65.0178 314.157,53.0178 329.5,45.5 Z"/></g>
<g><path style="opacity:1" fill="#f4f4f4" d="M 223.5,47.5 C 227.346,47.545 231.013,48.3783 234.5,50C 238.666,52.9175 242.999,55.5841 247.5,58C 249.255,58.7199 250.089,59.8866 250,61.5C 247.982,63.3501 246.149,65.3501 244.5,67.5C 236.587,63.7078 228.587,60.2078 220.5,57C 219.106,56.044 218.439,54.7106 218.5,53C 219.652,50.6821 221.319,48.8487 223.5,47.5 Z"/></g>
<g><path style="opacity:0.845" fill="#090906" d="M 183.5,62.5 C 184.029,67.4413 184.029,72.4413 183.5,77.5C 201.155,64.8271 203.821,67.3271 191.5,85C 196.117,84.5242 200.783,84.5242 205.5,85C 206.428,85.3879 207.095,86.0546 207.5,87C 198.733,95.7669 189.9,104.6 181,113.5C 173.55,122.897 166.717,132.73 160.5,143C 163.412,144.373 166.246,145.873 169,147.5C 171,149.833 171,152.167 169,154.5C 165,156.5 161,158.5 157,160.5C 156.333,163.833 155.667,167.167 155,170.5C 153.666,174.104 151.166,175.271 147.5,174C 144.289,170.958 141.289,167.791 138.5,164.5C 135.017,165.207 131.517,165.873 128,166.5C 123.902,165.755 122.235,163.421 123,159.5C 125.223,156.221 127.057,152.721 128.5,149C 126.931,144.793 125.265,140.627 123.5,136.5C 124.04,135.252 124.707,134.085 125.5,133C 129.203,132.421 132.869,132.588 136.5,133.5C 143.895,104.151 159.561,80.4842 183.5,62.5 Z"/></g>
<g><path style="opacity:1" fill="#dcdcdc" d="M 180.5,66.5 C 181.621,68.0894 181.454,69.7561 180,71.5C 179.333,75.1667 179.333,78.8333 180,82.5C 184.901,79.8016 189.735,77.3016 194.5,75C 190.873,78.7883 188.873,83.2883 188.5,88.5C 193.813,87.6381 199.146,87.4715 204.5,88C 185.102,101.727 169.602,118.894 158,139.5C 156.727,123.905 151.227,122.405 141.5,135C 140.517,135.591 139.85,135.257 139.5,134C 147.199,107.749 160.866,85.2488 180.5,66.5 Z"/></g>
<g><path style="opacity:1" fill="#f6f6f6" d="M 282.5,100.5 C 284.296,105.812 285.629,111.478 286.5,117.5C 277.037,121.098 267.371,124.098 257.5,126.5C 256.477,121.284 254.477,116.45 251.5,112C 258.356,111.619 265.023,110.286 271.5,108C 275.894,106.418 279.561,103.918 282.5,100.5 Z"/></g>
<g><path style="opacity:1" fill="#f0f0f0" d="M 286.5,118.5 C 288.961,120.744 289.627,123.411 288.5,126.5C 279.407,130.309 270.073,133.309 260.5,135.5C 260.335,133.173 259.669,131.007 258.5,129C 263.388,127.527 268.388,126.194 273.5,125C 278.204,123.315 282.538,121.148 286.5,118.5 Z"/></g>
<g><path style="opacity:1" fill="#fbfbfb" d="M 193.5,120.5 C 195.766,120.141 197.599,120.808 199,122.5C 199.063,141.876 199.73,161.21 201,180.5C 202.397,160.533 202.897,140.533 202.5,120.5C 218.07,119.584 227.903,126.584 232,141.5C 234.277,154.836 232.111,167.336 225.5,179C 225.833,179.167 226.167,179.333 226.5,179.5C 229.121,175.882 231.954,172.549 235,169.5C 248.788,172.318 261.621,177.484 273.5,185C 278.333,188.5 282.5,192.667 286,197.5C 294.427,210.681 302.093,224.348 309,238.5C 310.29,240.792 311.957,242.792 314,244.5C 313.078,238.959 311.244,233.626 308.5,228.5C 308.833,228.167 309.167,227.833 309.5,227.5C 314.089,231.128 319.089,233.628 324.5,235C 317.572,228.95 310.739,222.784 304,216.5C 295.795,194.464 280.962,178.798 259.5,169.5C 262.495,166.675 265.662,164.008 269,161.5C 279.325,173.53 279.991,172.863 271,159.5C 266.989,152.484 263.822,145.15 261.5,137.5C 270.718,136.372 279.385,133.538 287.5,129C 288.833,128.333 290.167,128.333 291.5,129C 299.822,146.938 312.155,161.605 328.5,173C 333.942,176.055 339.608,178.555 345.5,180.5C 346.696,180.154 346.696,179.654 345.5,179C 325.394,170.233 311.561,155.733 304,135.5C 321.843,160.994 346.01,170.16 376.5,163C 384.445,159.616 390.945,154.449 396,147.5C 395.607,152.132 395.607,156.799 396,161.5C 396.059,164.822 397.226,167.656 399.5,170C 384.045,178.738 367.379,182.405 349.5,181C 354.835,183.447 360.502,184.614 366.5,184.5C 374.206,184.188 381.706,182.855 389,180.5C 389.5,180.833 390,181.167 390.5,181.5C 390.144,184.115 388.811,185.948 386.5,187C 375.184,188.628 363.851,189.961 352.5,191C 353.949,192.117 355.616,192.784 357.5,193C 366.518,193.168 375.518,193.668 384.5,194.5C 389.447,202.479 396.447,207.812 405.5,210.5C 399.73,212.629 393.73,213.796 387.5,214C 374.495,214.202 361.495,214.202 348.5,214C 355.112,215.662 361.779,217.329 368.5,219C 347.432,237.728 324.432,253.728 299.5,267C 284.725,274.881 270.392,274.214 256.5,265C 252.367,261.869 248.534,258.369 245,254.5C 243.116,240.606 244.782,239.606 250,251.5C 256.724,260.693 265.724,265.693 277,266.5C 281.785,266.678 286.285,265.678 290.5,263.5C 266.731,265.679 252.231,255.012 247,231.5C 246.333,226.833 246.333,222.167 247,217.5C 248.116,214.18 248.783,210.847 249,207.5C 245.578,212.345 243.245,217.678 242,223.5C 240.391,213.12 236.225,203.953 229.5,196C 226.425,193.547 222.925,192.047 219,191.5C 212.524,190.766 206.024,190.266 199.5,190C 197.714,189.215 196.214,188.049 195,186.5C 192.515,164.483 192.015,142.483 193.5,120.5 Z"/></g>
<g><path style="opacity:1" fill="#dedede" d="M 447.5,128.5 C 454.211,131.023 460.544,134.356 466.5,138.5C 467.602,141.19 467.436,143.857 466,146.5C 452.708,176.437 436.375,204.437 417,230.5C 413.167,234.333 409.333,238.167 405.5,242C 365.309,266.267 324.309,289.267 282.5,311C 278.757,312.136 275.09,313.47 271.5,315C 266.206,315.541 261.206,314.541 256.5,312C 246.167,304.333 235.833,296.667 225.5,289C 241.024,287.187 247.858,278.354 246,262.5C 252.851,269.673 261.018,274.84 270.5,278C 277.567,278.839 284.567,278.506 291.5,277C 322.971,263.527 350.638,244.527 374.5,220C 388.61,220.796 402.277,218.796 415.5,214C 431.064,206.914 438.73,194.747 438.5,177.5C 438.121,171.964 437.454,166.464 436.5,161C 439.703,155.425 442.537,149.591 445,143.5C 447.033,138.705 447.866,133.705 447.5,128.5 Z"/></g>
<g><path style="opacity:1" fill="#f5f61e" d="M 150.5,130.5 C 151.5,130.5 152.5,130.5 153.5,130.5C 153.334,134.846 153.501,139.179 154,143.5C 158.084,146.126 162.25,148.626 166.5,151C 162.65,153.091 158.65,154.924 154.5,156.5C 152.791,161.034 151.458,165.7 150.5,170.5C 146.979,167.813 143.979,164.647 141.5,161C 136.877,161.226 132.21,161.393 127.5,161.5C 129.074,157.184 131.074,153.017 133.5,149C 131.399,144.97 129.732,140.804 128.5,136.5C 133.432,137.819 138.432,138.319 143.5,138C 146.039,135.63 148.372,133.13 150.5,130.5 Z"/></g>
<g><path style="opacity:1" fill="#1ec31d" d="M 50.5,145.5 C 60.1606,145.72 68.8272,148.72 76.5,154.5C 71.1929,159.472 65.8595,164.472 60.5,169.5C 60.6667,169.833 60.8333,170.167 61,170.5C 67.6772,165.819 74.3439,161.152 81,156.5C 103.571,170.737 120.905,189.737 133,213.5C 134.321,216.77 134.987,220.103 135,223.5C 129.224,227.641 123.724,232.141 118.5,237C 107.586,234.127 101.252,238.294 99.5,249.5C 94.0082,252.079 88.6748,254.912 83.5,258C 82.1667,258.667 80.8333,258.667 79.5,258C 57.8054,237.446 44.9721,212.279 41,182.5C 62.1638,171.186 61.6638,169.852 39.5,178.5C 38.3912,168.691 39.8912,159.357 44,150.5C 45.9651,148.45 48.1318,146.783 50.5,145.5 Z"/></g>
<g><path style="opacity:1" fill="#f9f9f9" d="M 430.5,166.5 C 431.655,173.321 431.821,180.321 431,187.5C 430.097,191.805 428.263,195.639 425.5,199C 413.298,199.71 402.465,196.21 393,188.5C 393.772,185.066 394.606,181.566 395.5,178C 398.39,176.971 401.224,175.805 404,174.5C 414.485,176.947 423.319,174.28 430.5,166.5 Z"/></g>
<g><path style="opacity:1" fill="#1c441d" d="M 82.5,181.5 C 84.5,182.167 86.5,182.833 88.5,183.5C 82.1904,182.856 76.1904,183.856 70.5,186.5C 69.3044,186.154 69.3044,185.654 70.5,185C 74.1869,182.715 78.1869,181.548 82.5,181.5 Z"/></g>
<g><path style="opacity:1" fill="#1fc31e" d="M 141.5,230.5 C 140.833,228.167 140.167,225.833 139.5,223.5C 136.018,208.537 129.352,195.203 119.5,183.5C 132.864,188.293 144.03,196.627 153,208.5C 151.57,217.025 147.736,224.359 141.5,230.5 Z"/></g>
<g><path style="opacity:1" fill="#0c160f" d="M 67.5,209.5 C 71.8286,222.677 80.4952,226.511 93.5,221C 99.101,214.841 99.9343,208.008 96,200.5C 87.3333,192.5 78.6667,192.5 70,200.5C 68.878,202.407 68.0447,204.407 67.5,206.5C 66.974,198.811 70.6407,193.644 78.5,191C 92.9224,188.921 101.256,195.088 103.5,209.5C 101.424,223.377 93.4244,229.21 79.5,227C 71.3973,223.956 67.3973,218.123 67.5,209.5 Z"/></g>
<g><path style="opacity:1" fill="#f3f3f3" d="M 389.5,190.5 C 395.103,193.301 400.769,196.135 406.5,199C 411.708,200.642 417.041,201.642 422.5,202C 417.293,208.111 410.96,209.778 403.5,207C 396.463,204.12 390.797,199.62 386.5,193.5C 387.34,192.265 388.34,191.265 389.5,190.5 Z"/></g>
<g><path style="opacity:1" fill="#8ff8fb" d="M 67.5,209.5 C 67.5,208.5 67.5,207.5 67.5,206.5C 68.0447,204.407 68.878,202.407 70,200.5C 78.6667,192.5 87.3333,192.5 96,200.5C 99.9343,208.008 99.101,214.841 93.5,221C 80.4952,226.511 71.8286,222.677 67.5,209.5 Z"/></g>
<g><path style="opacity:1" fill="#f9f9f9" d="M 212.5,198.5 C 216.637,198.146 220.637,198.646 224.5,200C 229.124,205.748 232.29,212.248 234,219.5C 238.522,238.372 239.522,257.372 237,276.5C 234.406,280.047 230.906,281.881 226.5,282C 211.816,282.618 197.149,282.285 182.5,281C 178.071,280.287 174.404,278.287 171.5,275C 190.434,276.487 209.434,276.821 228.5,276C 209.548,274.239 190.548,272.739 171.5,271.5C 172.601,259.889 178.934,252.723 190.5,250C 194.5,249.333 198.5,249.333 202.5,250C 207.084,251.476 211.418,253.143 215.5,255C 211.495,250.748 206.662,247.914 201,246.5C 200.215,235.464 200.548,224.464 202,213.5C 203.391,206.955 206.891,201.955 212.5,198.5 Z"/></g>
<g><path style="opacity:1" fill="#0d1c0b" d="M 82.5,181.5 C 97.445,181.273 107.278,188.273 112,202.5C 115.04,217.736 109.54,228.569 95.5,235C 74.9344,238.715 62.2677,230.382 57.5,210C 57.6107,208.278 58.1107,208.112 59,209.5C 61.9375,226.043 71.7708,234.21 88.5,234C 104.635,230.247 111.802,220.081 110,203.5C 106.48,192.81 99.3131,186.143 88.5,183.5C 86.5,182.833 84.5,182.167 82.5,181.5 Z"/></g>
<g><path style="opacity:1" fill="#dcdcdc" d="M 195.5,207.5 C 196.097,207.735 196.43,208.235 196.5,209C 194.969,221.322 193.969,233.655 193.5,246C 189.814,246.559 186.147,247.226 182.5,248C 180.44,249.696 178.107,250.863 175.5,251.5C 168.609,247.801 162.109,243.468 156,238.5C 154.924,236.933 154.091,235.266 153.5,233.5C 154.559,230.932 156.226,228.765 158.5,227C 170.895,220.471 183.228,213.971 195.5,207.5 Z"/></g>
<g><path style="opacity:1" fill="#367934" d="M 139.5,223.5 C 140.167,225.833 140.833,228.167 141.5,230.5C 141.44,231.043 141.107,231.376 140.5,231.5C 139.52,228.914 139.187,226.247 139.5,223.5 Z"/></g>
<g><path style="opacity:1" fill="#24bf22" d="M 134.5,227.5 C 135.748,228.334 136.415,229.667 136.5,231.5C 135.762,238.734 133.095,245.067 128.5,250.5C 125.844,247.206 123.178,243.873 120.5,240.5C 125.199,236.16 129.866,231.826 134.5,227.5 Z"/></g>
<g><path style="opacity:1" fill="#20c31e" d="M 50.5,231.5 C 51.4959,231.414 52.3292,231.748 53,232.5C 61.6994,248.033 73.8661,260.033 89.5,268.5C 81.0065,273.568 72.0065,275.068 62.5,273C 58.849,268.057 56.349,262.557 55,256.5C 52.4519,248.341 50.9519,240.008 50.5,231.5 Z"/></g>
<g><path style="opacity:1" fill="#d4a4cd" d="M 141.5,235.5 C 142.239,235.369 142.906,235.536 143.5,236C 141.117,239.265 139.117,242.765 137.5,246.5C 137.2,242.411 138.533,238.744 141.5,235.5 Z"/></g>
<g><path style="opacity:1" fill="#1fc31e" d="M 108.5,239.5 C 110.857,239.337 113.19,239.503 115.5,240C 123.289,248.074 128.623,257.574 131.5,268.5C 130.024,272.707 127.358,273.54 123.5,271C 118.116,265.071 112.616,259.238 107,253.5C 103.265,248.268 103.765,243.602 108.5,239.5 Z"/></g>
<g><path style="opacity:1" fill="#dbdbdb" d="M 147.5,238.5 C 151.332,242.164 155.332,245.664 159.5,249C 155.73,258.446 153.73,268.279 153.5,278.5C 150.531,279.329 147.531,279.495 144.5,279C 143.299,278.097 142.465,276.931 142,275.5C 139.976,262.512 141.81,250.179 147.5,238.5 Z"/></g>
<g><path style="opacity:1" fill="#d9d9d9" d="M 404.5,247.5 C 415.948,250.775 423.781,258.108 428,269.5C 431.568,276.777 429.401,279.944 421.5,279C 418.298,271.599 413.631,265.266 407.5,260C 403.186,257.34 398.519,255.673 393.5,255C 397.345,252.637 401.011,250.137 404.5,247.5 Z"/></g>
<g><path style="opacity:1" fill="#20c21f" d="M 99.5,252.5 C 100.675,252.281 101.675,252.614 102.5,253.5C 104.523,256.869 107.023,259.869 110,262.5C 110.617,263.449 110.451,264.282 109.5,265C 100.462,267.888 92.1289,266.554 84.5,261C 90.0953,258.991 95.0953,256.157 99.5,252.5 Z"/></g>
<g><path style="opacity:0.995" fill="#fcfcfc" d="M 486.5,386.5 C 485.657,388.173 484.324,389.34 482.5,390C 409.909,404.66 336.576,411.494 262.5,410.5C 190.328,410.902 118.661,405.069 47.5,393C 45.6763,392.34 44.343,391.173 43.5,389.5C 48.1053,381.953 51.9386,373.953 55,365.5C 59.6292,364.939 64.1292,363.772 68.5,362C 74.0124,358.849 77.5124,354.349 79,348.5C 74.4049,352.878 69.2383,356.378 63.5,359C 58.8309,360.538 55.6643,359.038 54,354.5C 53.3333,350.5 53.3333,346.5 54,342.5C 57.444,332.276 62.444,322.942 69,314.5C 73.0668,310.384 77.9002,307.718 83.5,306.5C 86.006,306.335 87.8393,307.335 89,309.5C 89.3333,317.167 89.6667,324.833 90,332.5C 92.9114,326.855 94.578,320.855 95,314.5C 106.629,299.204 119.962,285.537 135,273.5C 135.638,278.623 138.138,282.457 142.5,285C 148.316,286.409 153.483,285.242 158,281.5C 159.131,272.845 160.464,264.178 162,255.5C 165.397,252.916 168.231,253.583 170.5,257.5C 169.081,259.336 167.914,261.336 167,263.5C 162.888,275.201 166.721,282.701 178.5,286C 190.814,287.207 203.147,288.207 215.5,289C 225.346,296.091 235.013,303.424 244.5,311C 240.813,314.21 237.979,318.044 236,322.5C 232.488,332.337 231.821,342.337 234,352.5C 241.921,359.305 249.587,358.971 257,351.5C 259.023,339.956 263.856,329.789 271.5,321C 280.185,318.158 288.519,314.491 296.5,310C 326.158,293.839 355.492,277.173 384.5,260C 400.192,259.112 410.359,266.278 415,281.5C 417.273,284.804 420.439,286.304 424.5,286C 421.333,287.833 418.833,290.333 417,293.5C 415.975,307.124 420.309,318.791 430,328.5C 428.015,322.167 425.682,315.834 423,309.5C 422.107,306.567 421.607,303.567 421.5,300.5C 420.947,296.103 422.614,292.937 426.5,291C 433.673,289.793 440.34,291.127 446.5,295C 467.421,309.343 477.921,329.177 478,354.5C 477.215,356.286 476.049,357.786 474.5,359C 470.625,360.52 466.625,360.854 462.5,360C 453.916,354.087 445.916,347.42 438.5,340C 437.668,339.312 437.002,339.479 436.5,340.5C 441.904,348.409 448.237,355.576 455.5,362C 460.592,365.689 466.258,367.023 472.5,366C 474.146,364.599 475.813,364.432 477.5,365.5C 479.931,372.81 482.931,379.81 486.5,386.5 Z"/></g>
<g><path style="opacity:1" fill="#24c022" d="M 94.5,269.5 C 98.1419,270.08 101.809,270.58 105.5,271C 107.304,274.296 107.804,277.796 107,281.5C 105.132,282.672 103.298,282.505 101.5,281C 98.6667,278.167 95.8333,275.333 93,272.5C 92.7613,271.212 93.2613,270.212 94.5,269.5 Z"/></g>
<g><path style="opacity:1" fill="#f0f0f0" d="M 118.5,273.5 C 120.78,274.64 123.114,275.807 125.5,277C 114.298,286.535 104.131,297.035 95,308.5C 93.8589,306.391 92.3589,304.558 90.5,303C 99.1589,292.183 108.492,282.35 118.5,273.5 Z"/></g>
<g><path style="opacity:1" fill="#181818" d="M 157.5,293.5 C 162.844,293.334 168.177,293.501 173.5,294C 178.325,296.135 178.659,298.801 174.5,302C 167.507,305.276 160.173,306.61 152.5,306C 148.896,304.666 147.729,302.166 149,298.5C 151.682,296.415 154.516,294.748 157.5,293.5 Z"/></g>
<g><path style="opacity:1" fill="#1a1a1a" d="M 356.5,293.5 C 364.907,294.204 372.24,297.37 378.5,303C 378,303.167 377.5,303.333 377,303.5C 372.892,301.529 368.725,299.696 364.5,298C 362.098,297.186 359.765,297.353 357.5,298.5C 363.197,304.682 370.197,308.182 378.5,309C 379.212,307.575 379.379,306.075 379,304.5C 382.481,307.251 382.314,309.751 378.5,312C 369.309,311.657 361.476,308.157 355,301.5C 354.109,298.502 354.609,295.836 356.5,293.5 Z"/></g>
<g><path style="opacity:1" fill="#f4f4f4" d="M 160.5,295.5 C 165.179,295.334 169.845,295.501 174.5,296C 175.833,297 175.833,298 174.5,299C 167.438,301.779 160.104,302.945 152.5,302.5C 152.281,301.325 152.614,300.325 153.5,299.5C 155.904,298.157 158.238,296.823 160.5,295.5 Z"/></g>
<g><path style="opacity:1" fill="#161616" d="M 436.5,297.5 C 439.794,297.259 442.794,298.092 445.5,300C 447.833,302.333 450.167,304.667 452.5,307C 448.378,304.786 444.045,302.62 439.5,300.5C 436.918,300.747 436.085,302.08 437,304.5C 443.208,307.371 448.208,311.704 452,317.5C 458.936,325.948 464.436,335.281 468.5,345.5C 469.086,345.291 469.586,344.957 470,344.5C 470.667,342.5 470.667,340.5 470,338.5C 466.651,332.144 463.651,325.81 461,319.5C 468.837,326.501 472.837,335.168 473,345.5C 470.019,349.696 466.186,350.529 461.5,348C 453.914,340.418 447.081,332.252 441,323.5C 437.555,318.945 434.888,313.945 433,308.5C 431.882,304.077 433.049,300.41 436.5,297.5 Z"/></g>
<g><path style="opacity:1" fill="#161616" d="M 348.5,305.5 C 348.897,304.475 349.563,304.308 350.5,305C 358.653,311.945 367.986,316.612 378.5,319C 366.14,319.652 356.14,315.152 348.5,305.5 Z"/></g>
<g><path style="opacity:1" fill="#f1f1f1" d="M 436.5,306.5 C 438.781,307.608 440.948,308.942 443,310.5C 450.389,320.223 457.389,330.223 464,340.5C 464.781,341.944 464.614,343.277 463.5,344.5C 456.535,337.245 450.035,329.578 444,321.5C 440.429,317.025 437.929,312.025 436.5,306.5 Z"/></g>
<g><path style="opacity:1" fill="#1a1a1a" d="M 227.5,310.5 C 235.672,308.505 238.506,311.505 236,319.5C 231.756,324.043 226.589,325.877 220.5,325C 217.278,323.01 216.778,320.51 219,317.5C 219.111,321.953 221.277,323.787 225.5,323C 230.245,321.434 232.912,318.267 233.5,313.5C 229.044,313.591 224.71,314.091 220.5,315C 223.187,313.951 225.52,312.451 227.5,310.5 Z"/></g>
<g><path style="opacity:1" fill="#dcdcdc" d="M 246.5,314.5 C 252.428,316.789 258.428,319.122 264.5,321.5C 258.136,329.897 253.636,339.23 251,349.5C 241.509,353.497 237.342,350.33 238.5,340C 238.263,330.547 240.929,322.047 246.5,314.5 Z"/></g>
<g><path style="opacity:1" fill="#161616" d="M 78.5,314.5 C 79.3764,314.369 80.0431,314.702 80.5,315.5C 73.7995,327.039 67.2995,338.706 61,350.5C 61.5948,341.388 64.5948,333.055 70,325.5C 73.0486,321.957 75.8819,318.291 78.5,314.5 Z"/></g>
<g><path style="opacity:1" fill="#0f0f0f" d="M 319.5,325.5 C 328.812,324.883 337.812,326.049 346.5,329C 338.833,329.333 331.167,329.667 323.5,330C 316.818,330.591 311.318,333.424 307,338.5C 306.333,341.167 306.333,343.833 307,346.5C 312.748,341.084 319.582,338.75 327.5,339.5C 344.962,340.532 361.628,344.699 377.5,352C 385.465,356.964 389.632,364.13 390,373.5C 395.543,367.258 395.876,360.592 391,353.5C 382.453,342.63 371.62,334.797 358.5,330C 372.676,331.506 384.509,337.673 394,348.5C 400.032,356.587 401.032,365.253 397,374.5C 392.996,378.612 388.163,380.112 382.5,379C 372.636,376.267 362.969,372.934 353.5,369C 341.972,366.383 330.305,364.717 318.5,364C 305.65,360.788 299.817,352.622 301,339.5C 302.07,336.758 303.57,334.258 305.5,332C 309.877,328.975 314.544,326.808 319.5,325.5 Z"/></g>
<g><path style="opacity:1" fill="#181818" d="M 205.5,326.5 C 215.845,334.707 218.012,344.707 212,356.5C 203.192,367.663 192.026,375.163 178.5,379C 189.486,372.688 199.319,364.855 208,355.5C 211.301,349.922 212.301,343.922 211,337.5C 209.14,333.78 207.307,330.114 205.5,326.5 Z"/></g>
<g><path style="opacity:1" fill="#0e0e0e" d="M 178.5,331.5 C 187.86,329.897 195.694,332.564 202,339.5C 203.233,346.873 200.733,352.706 194.5,357C 179.634,366.514 163.634,373.514 146.5,378C 141.833,378.667 137.167,378.667 132.5,378C 124.77,375.041 121.937,369.541 124,361.5C 128.47,352.842 135.303,346.842 144.5,343.5C 144.833,343.833 145.167,344.167 145.5,344.5C 138.426,349.073 132.926,355.073 129,362.5C 127.663,366.526 128.83,369.526 132.5,371.5C 148.915,351.289 169.915,343.456 195.5,348C 197.85,345.627 198.017,343.127 196,340.5C 189.355,336.65 182.189,335.483 174.5,337C 170.035,337.699 165.702,338.866 161.5,340.5C 161.167,340.167 160.833,339.833 160.5,339.5C 166.083,335.705 172.083,333.038 178.5,331.5 Z"/></g>
<g><path style="opacity:1" fill="#f8f8f8" d="M 319.5,343.5 C 339.881,343.596 359.214,348.096 377.5,357C 383.019,361.21 386.019,366.71 386.5,373.5C 384.143,373.663 381.81,373.497 379.5,373C 371.013,369.281 362.346,365.947 353.5,363C 340.504,360.781 327.504,358.781 314.5,357C 312.024,355.691 310.024,353.858 308.5,351.5C 311.069,347.256 314.735,344.59 319.5,343.5 Z"/></g>
<g><path style="opacity:1" fill="#181818" d="M 285.5,345.5 C 289.079,359.581 297.746,369.081 311.5,374C 319.445,375.66 327.445,376.993 335.5,378C 338.637,378.601 341.637,379.601 344.5,381C 336.224,380.194 327.89,379.527 319.5,379C 298.98,376.979 287.647,365.813 285.5,345.5 Z"/></g>
<g><path style="opacity:1" fill="#f5f5f5" d="M 174.5,350.5 C 180.206,350.171 185.872,350.505 191.5,351.5C 178.314,361.257 163.647,368.09 147.5,372C 143.903,373.277 140.236,373.61 136.5,373C 146.978,361.602 159.645,354.102 174.5,350.5 Z"/></g>
<g><path style="opacity:1" fill="#1b1b1b" d="M 104.5,360.5 C 106.273,361.314 106.773,362.648 106,364.5C 103.456,369.218 99.6226,372.218 94.5,373.5C 91.0254,372.857 89.8588,370.857 91,367.5C 94.029,361.737 98.529,359.404 104.5,360.5 Z"/></g>
<g><path style="opacity:1" fill="#ececec" d="M 104.5,360.5 C 103.639,365.865 100.472,369.198 95,370.5C 95.4444,364.881 98.6111,361.548 104.5,360.5 Z"/></g>
<g><path style="opacity:1" fill="#181818" d="M 423.5,362.5 C 430.46,361.733 434.793,365.066 436.5,372.5C 435.514,376.147 433.181,377.314 429.5,376C 424.665,373.178 422.498,369.012 423,363.5C 424.251,368.417 427.251,371.75 432,373.5C 432.5,373.167 433,372.833 433.5,372.5C 431.789,367.455 428.456,364.122 423.5,362.5 Z"/></g>
</svg>
